<svg xmlns="http://www.w3.org/2000/svg"  viewBox="0 0 24 24" width="48px" height="48px"><circle cx="12" cy="12" r="10" opacity=".35"/><path d="M20,11h-1v-1c0-0.552-0.448-1-1-1s-1,0.448-1,1v1h-1c-0.552,0-1,0.448-1,1s0.448,1,1,1h1v1c0,0.552,0.448,1,1,1s1-0.448,1-1	v-1h1c0.552,0,1-0.448,1-1S20.552,11,20,11z"/><path d="M9,17c-2.757,0-5-2.243-5-5s2.243-5,5-5c0.833,0,1.659,0.209,2.386,0.605c0.485,0.264,0.665,0.872,0.4,1.356 c-0.265,0.485-0.873,0.663-1.356,0.4C9.995,9.125,9.5,9,9,9c-1.654,0-3,1.346-3,3s1.346,3,3,3c1.304,0,2.416-0.836,2.829-2H10 c-0.552,0-1-0.448-1-1s0.448-1,1-1h3c0.552,0,1,0.448,1,1C14,14.757,11.757,17,9,17z"/></svg>